<svg width="228" height="99" viewBox="0 0 228 99" fill="none" xmlns="http://www.w3.org/2000/svg">
<path d="M59.3079 38.4453C59.3079 39.4922 59.175 40.4375 58.9094 41.2812C58.6438 42.1094 58.2922 42.8438 57.8547 43.4844C57.4172 44.1094 56.9094 44.6484 56.3313 45.1016C55.7532 45.5391 55.1438 45.8984 54.5032 46.1797C53.8782 46.4609 53.2454 46.6719 52.6047 46.8125C51.9641 46.9375 51.3547 47 50.7766 47H39.7844V40.9062H50.7766C51.5891 40.9062 52.1985 40.6953 52.6047 40.2734C53.011 39.8516 53.2141 39.2422 53.2141 38.4453V30.2422C53.2141 29.3984 53.0032 28.7734 52.5813 28.3672C52.175 27.9609 51.5735 27.7578 50.7766 27.7578H39.8313C39.0032 27.7578 38.3782 27.9688 37.9563 28.3906C37.5344 28.7969 37.3235 29.3984 37.3235 30.1953V54.9219H31.2297V30.1953C31.2297 29.1484 31.3625 28.2109 31.6282 27.3828C31.8938 26.5547 32.2454 25.8281 32.6829 25.2031C33.136 24.5625 33.6516 24.0234 34.2297 23.5859C34.8079 23.1328 35.4094 22.7656 36.0344 22.4844C36.675 22.2031 37.3157 22 37.9563 21.875C38.6125 21.7344 39.2219 21.6641 39.7844 21.6641H50.7766C51.8235 21.6641 52.761 21.7969 53.5891 22.0625C54.4172 22.3281 55.1438 22.6797 55.7688 23.1172C56.4094 23.5547 56.9485 24.0625 57.386 24.6406C57.8391 25.2188 58.2063 25.8281 58.4875 26.4688C58.7688 27.0938 58.9719 27.7266 59.0969 28.3672C59.2375 29.0078 59.3079 29.6172 59.3079 30.1953V38.4453ZM90.6672 38.6094C90.6672 39.4531 90.5188 40.3672 90.2219 41.3516C89.925 42.3203 89.4407 43.2266 88.7688 44.0703C88.1125 44.8984 87.2454 45.5938 86.1672 46.1562C85.1047 46.7188 83.8079 47 82.2766 47H71.2844C70.4407 47 69.5266 46.8516 68.5422 46.5547C67.5735 46.2578 66.6672 45.7812 65.8235 45.125C64.9954 44.4531 64.3 43.5859 63.7375 42.5234C63.175 41.4453 62.8938 40.1406 62.8938 38.6094C62.8938 37.7656 63.0422 36.8516 63.3391 35.8672C63.636 34.8828 64.1125 33.9766 64.7688 33.1484C65.4407 32.3047 66.3079 31.6016 67.3704 31.0391C68.4485 30.4766 69.7532 30.1953 71.2844 30.1953H82.2766V36.0078H71.2844C70.4563 36.0078 69.8157 36.2656 69.3625 36.7812C68.9094 37.2812 68.6829 37.9062 68.6829 38.6562C68.6829 39.4531 68.9407 40.0781 69.4563 40.5312C69.9875 40.9688 70.6125 41.1875 71.3313 41.1875H82.2766C83.1047 41.1875 83.7454 40.9375 84.1985 40.4375C84.6516 39.9375 84.8782 39.3125 84.8782 38.5625V30.0547C84.8782 29.2578 84.6282 28.625 84.1282 28.1562C83.6438 27.6875 83.0266 27.4531 82.2766 27.4531H68.8938V21.6641H82.2766C83.1204 21.6641 84.0266 21.8125 84.9954 22.1094C85.9797 22.4062 86.886 22.8906 87.7141 23.5625C88.5579 24.2188 89.261 25.0859 89.8235 26.1641C90.386 27.2266 90.6672 28.5234 90.6672 30.0547V38.6094ZM123.948 47H117.855V32.9375C117.855 32.1406 117.714 31.4297 117.433 30.8047C117.167 30.1641 116.8 29.6172 116.331 29.1641C115.863 28.7109 115.308 28.3672 114.667 28.1328C114.042 27.8828 113.363 27.7578 112.628 27.7578H101.964V47H95.8704V24.6875C95.8704 24.2656 95.9485 23.875 96.1047 23.5156C96.261 23.1406 96.4797 22.8203 96.761 22.5547C97.0422 22.2734 97.3704 22.0547 97.7454 21.8984C98.1204 21.7422 98.5188 21.6641 98.9407 21.6641H112.675C113.441 21.6641 114.245 21.75 115.089 21.9219C115.948 22.0938 116.792 22.375 117.62 22.7656C118.464 23.1406 119.261 23.625 120.011 24.2188C120.777 24.7969 121.448 25.5078 122.027 26.3516C122.62 27.1797 123.089 28.1406 123.433 29.2344C123.777 30.3281 123.948 31.5625 123.948 32.9375V47ZM153.292 23.5391C153.542 24.1172 153.605 24.7031 153.48 25.2969C153.37 25.8906 153.105 26.4062 152.683 26.8438L138.597 40.9062H153.245V47H131.261C130.636 47 130.066 46.8281 129.55 46.4844C129.05 46.125 128.675 45.6719 128.425 45.125C128.191 44.5469 128.128 43.9609 128.238 43.3672C128.363 42.7578 128.652 42.2266 129.105 41.7734L143.12 27.7578H128.472V21.6641H150.503C151.113 21.6641 151.667 21.8281 152.167 22.1562C152.683 22.4844 153.058 22.9453 153.292 23.5391ZM185.331 30.0547C185.331 30.8984 185.183 31.8125 184.886 32.7969C184.589 33.7656 184.105 34.6719 183.433 35.5156C182.777 36.3438 181.909 37.0391 180.831 37.6016C179.769 38.1641 178.472 38.4453 176.941 38.4453H165.948V32.6562H176.941C177.769 32.6562 178.409 32.4062 178.863 31.9062C179.316 31.3906 179.542 30.7578 179.542 30.0078C179.542 29.2109 179.284 28.5859 178.769 28.1328C178.269 27.6797 177.659 27.4531 176.941 27.4531H165.948C165.12 27.4531 164.48 27.7109 164.027 28.2266C163.573 28.7266 163.347 29.3516 163.347 30.1016V38.6094C163.347 39.4219 163.597 40.0547 164.097 40.5078C164.613 40.9609 165.245 41.1875 165.995 41.1875H176.941V47H165.948C165.105 47 164.191 46.8516 163.206 46.5547C162.238 46.2578 161.331 45.7812 160.488 45.125C159.659 44.4531 158.964 43.5859 158.402 42.5234C157.839 41.4453 157.558 40.1406 157.558 38.6094V30.0547C157.558 29.2109 157.706 28.3047 158.003 27.3359C158.3 26.3516 158.777 25.4453 159.433 24.6172C160.105 23.7734 160.972 23.0703 162.034 22.5078C163.113 21.9453 164.417 21.6641 165.948 21.6641H176.941C177.784 21.6641 178.691 21.8125 179.659 22.1094C180.644 22.4062 181.55 22.8906 182.378 23.5625C183.222 24.2188 183.925 25.0859 184.488 26.1641C185.05 27.2266 185.331 28.5234 185.331 30.0547ZM211.605 27.7578H197.894C197.066 27.7578 196.441 27.9688 196.019 28.3906C195.597 28.7969 195.386 29.3984 195.386 30.1953V47H189.292V30.1953C189.292 29.1484 189.425 28.2109 189.691 27.3828C189.956 26.5547 190.308 25.8281 190.745 25.2031C191.198 24.5625 191.714 24.0234 192.292 23.5859C192.87 23.1328 193.472 22.7656 194.097 22.4844C194.738 22.2031 195.378 22 196.019 21.875C196.675 21.7344 197.284 21.6641 197.847 21.6641H211.605V27.7578Z" fill="#D2FF00"/>
<path d="M11.5861 75.128C10.7754 75.128 10.1248 74.8987 9.63411 74.44C9.14345 73.9813 8.89811 73.3787 8.89811 72.632H10.0181C10.0181 73.08 10.1621 73.4427 10.4501 73.72C10.7381 73.9973 11.1168 74.136 11.5861 74.136H12.9781C13.4368 74.136 13.8101 74.0453 14.0981 73.864C14.3861 73.672 14.5301 73.4267 14.5301 73.128V72.584C14.5301 72.3813 14.4501 72.2053 14.2901 72.056C14.1301 71.896 13.9221 71.7893 13.6661 71.736L10.8981 71.256C10.3434 71.16 9.89545 70.952 9.55411 70.632C9.22345 70.3013 9.05811 69.9173 9.05811 69.48V68.952C9.05811 68.3333 9.29278 67.8373 9.76211 67.464C10.2314 67.08 10.8501 66.888 11.6181 66.888H12.9941C13.7408 66.888 14.3434 67.1013 14.8021 67.528C15.2608 67.944 15.4901 68.4987 15.4901 69.192H14.3701C14.3594 68.7973 14.2261 68.4827 13.9701 68.248C13.7248 68.0027 13.3994 67.88 12.9941 67.88H11.6181C11.1914 67.88 10.8501 67.9813 10.5941 68.184C10.3381 68.376 10.2101 68.632 10.2101 68.952V69.416C10.2101 69.6187 10.2954 69.8 10.4661 69.96C10.6474 70.12 10.8768 70.2213 11.1541 70.264L13.9061 70.744C14.4394 70.84 14.8661 71.048 15.1861 71.368C15.5168 71.688 15.6821 72.072 15.6821 72.52V73.16C15.6821 73.7467 15.4314 74.2213 14.9301 74.584C14.4394 74.9467 13.7888 75.128 12.9781 75.128H11.5861ZM25.2906 75.128C24.5546 75.128 23.9573 74.8773 23.4986 74.376C23.0399 73.8747 22.8106 73.2187 22.8106 72.408V67.016H23.9626V72.44C23.9626 72.9413 24.0853 73.3467 24.3306 73.656C24.5759 73.9547 24.8959 74.104 25.2906 74.104H26.2826C26.7733 74.104 27.2266 73.9067 27.6426 73.512C28.0586 73.1173 28.3253 72.6213 28.4426 72.024V67.016H29.5946V75H28.4746V73.784C28.2293 74.168 27.9039 74.488 27.4986 74.744C27.0933 75 26.6986 75.128 26.3146 75.128H25.2906ZM39.6156 75.128C38.8369 75.128 38.2129 74.9253 37.7436 74.52C37.2849 74.1147 37.0556 73.5707 37.0556 72.888V72.376C37.0556 71.704 37.2956 71.1653 37.7756 70.76C38.2556 70.3547 38.8903 70.152 39.6796 70.152H40.7036C41.0556 70.152 41.4183 70.2053 41.7916 70.312C42.1649 70.4187 42.4849 70.5627 42.7516 70.744V69.416C42.7516 68.968 42.6129 68.6053 42.3356 68.328C42.0583 68.04 41.6903 67.896 41.2316 67.896H39.9516C39.4929 67.896 39.1249 68.0027 38.8476 68.216C38.5703 68.4293 38.4316 68.712 38.4316 69.064H37.2796C37.2796 68.4133 37.5249 67.8907 38.0156 67.496C38.5063 67.0907 39.1516 66.888 39.9516 66.888H41.2316C42.0209 66.888 42.6556 67.1227 43.1356 67.592C43.6263 68.0507 43.8716 68.6587 43.8716 69.416V75H42.7836V73.88C42.5383 74.264 42.2129 74.568 41.8076 74.792C41.4129 75.016 41.0023 75.128 40.5756 75.128H39.6156ZM40.6076 74.12C41.1089 74.12 41.5569 73.9653 41.9516 73.656C42.3463 73.3467 42.6129 72.936 42.7516 72.424V71.832C42.5383 71.6293 42.2396 71.4693 41.8556 71.352C41.4823 71.224 41.0983 71.16 40.7036 71.16H39.6796C39.2423 71.16 38.8849 71.272 38.6076 71.496C38.3409 71.72 38.2076 72.0133 38.2076 72.376V72.888C38.2076 73.2613 38.3356 73.56 38.5916 73.784C38.8476 74.008 39.1889 74.12 39.6156 74.12H40.6076ZM69.6705 66.888C70.3745 66.888 70.9292 67.1173 71.3345 67.576C71.7505 68.024 71.9585 68.648 71.9585 69.448V75H70.8065V69.416C70.8065 68.9467 70.6998 68.5787 70.4865 68.312C70.2732 68.0453 69.9905 67.912 69.6385 67.912H68.7265C68.2678 67.912 67.8892 68.0667 67.5905 68.376C67.2918 68.6853 67.0998 69.1227 67.0145 69.688V75H65.8625V69.512C65.8625 69.0107 65.7612 68.6213 65.5585 68.344C65.3665 68.056 65.0998 67.912 64.7585 67.912H63.8465C63.4092 67.912 63.0252 68.104 62.6945 68.488C62.3638 68.872 62.1558 69.3733 62.0705 69.992V75H60.9185V67.016H62.0385V68.168C62.2518 67.7627 62.5185 67.448 62.8385 67.224C63.1585 67 63.4945 66.888 63.8465 66.888H64.7905C65.2385 66.888 65.6225 67 65.9425 67.224C66.2732 67.4373 66.5238 67.752 66.6945 68.168C66.9398 67.7413 67.2332 67.4213 67.5745 67.208C67.9158 66.9947 68.2892 66.888 68.6945 66.888H69.6705ZM82.2295 75.128C81.3335 75.128 80.6135 74.8667 80.0695 74.344C79.5255 73.8107 79.2535 73.1067 79.2535 72.232V69.944C79.2535 69.0267 79.5255 68.2907 80.0695 67.736C80.6135 67.1707 81.3335 66.888 82.2295 66.888H83.5415C84.3948 66.888 85.0828 67.16 85.6055 67.704C86.1282 68.248 86.3895 68.968 86.3895 69.864V71.272H80.4055V72.232C80.4055 72.7867 80.5708 73.24 80.9015 73.592C81.2428 73.9333 81.6855 74.104 82.2295 74.104H83.4455C83.9788 74.104 84.4108 73.96 84.7415 73.672C85.0722 73.3733 85.2375 72.9787 85.2375 72.488H86.3575C86.3575 73.2773 86.0908 73.9173 85.5575 74.408C85.0242 74.888 84.3202 75.128 83.4455 75.128H82.2295ZM85.2375 70.28V69.864C85.2375 69.2773 85.0828 68.808 84.7735 68.456C84.4642 68.0933 84.0535 67.912 83.5415 67.912H82.2295C81.6855 67.912 81.2428 68.0987 80.9015 68.472C80.5708 68.8453 80.4055 69.336 80.4055 69.944V70.28H85.2375ZM95.8896 75C95.1003 75 94.5349 74.8347 94.1936 74.504C93.8523 74.1627 93.6816 73.6027 93.6816 72.824V63.8H94.8336V72.824C94.8336 73.2293 94.9136 73.5227 95.0736 73.704C95.2443 73.8853 95.5163 73.976 95.8896 73.976H96.4336V75H95.8896ZM103.243 63.8H104.395V68.12C104.64 67.7467 104.955 67.448 105.339 67.224C105.723 67 106.112 66.888 106.507 66.888H107.627C108.363 66.888 108.955 67.1387 109.403 67.64C109.862 68.1413 110.091 68.7973 110.091 69.608V75H108.939V69.576C108.939 69.0853 108.816 68.6853 108.571 68.376C108.326 68.0667 108 67.912 107.595 67.912H106.539C106.038 67.912 105.579 68.1093 105.163 68.504C104.758 68.888 104.502 69.384 104.395 69.992V75H103.243V63.8ZM120.366 75.128C119.47 75.128 118.75 74.8507 118.206 74.296C117.662 73.7413 117.39 73.0107 117.39 72.104V69.912C117.39 69.0053 117.662 68.2747 118.206 67.72C118.761 67.1653 119.492 66.888 120.398 66.888H121.71C122.617 66.888 123.342 67.1653 123.886 67.72C124.441 68.2747 124.718 69.0053 124.718 69.912V72.104C124.718 73.0107 124.441 73.7413 123.886 74.296C123.332 74.8507 122.596 75.128 121.678 75.128H120.366ZM121.678 74.104C122.254 74.104 122.713 73.9227 123.054 73.56C123.396 73.1867 123.566 72.7013 123.566 72.104V69.912C123.566 69.3147 123.396 68.8347 123.054 68.472C122.713 68.0987 122.265 67.912 121.71 67.912H120.398C119.844 67.912 119.396 68.0987 119.054 68.472C118.713 68.8347 118.542 69.3147 118.542 69.912V72.104C118.542 72.712 118.708 73.1973 119.038 73.56C119.369 73.9227 119.812 74.104 120.366 74.104H121.678ZM132.115 67.016H133.235V68.248C133.449 67.8747 133.769 67.5707 134.195 67.336C134.633 67.1013 135.086 66.984 135.555 66.984H136.259V68.024H135.555C134.873 68.024 134.318 68.2427 133.891 68.68C133.475 69.1067 133.267 69.6773 133.267 70.392V75H132.115V67.016ZM154.823 75.128C154.044 75.128 153.42 74.9253 152.951 74.52C152.492 74.1147 152.263 73.5707 152.263 72.888V72.376C152.263 71.704 152.503 71.1653 152.983 70.76C153.463 70.3547 154.098 70.152 154.887 70.152H155.911C156.263 70.152 156.626 70.2053 156.999 70.312C157.372 70.4187 157.692 70.5627 157.959 70.744V69.416C157.959 68.968 157.82 68.6053 157.543 68.328C157.266 68.04 156.898 67.896 156.439 67.896H155.159C154.7 67.896 154.332 68.0027 154.055 68.216C153.778 68.4293 153.639 68.712 153.639 69.064H152.487C152.487 68.4133 152.732 67.8907 153.223 67.496C153.714 67.0907 154.359 66.888 155.159 66.888H156.439C157.228 66.888 157.863 67.1227 158.343 67.592C158.834 68.0507 159.079 68.6587 159.079 69.416V75H157.991V73.88C157.746 74.264 157.42 74.568 157.015 74.792C156.62 75.016 156.21 75.128 155.783 75.128H154.823ZM155.815 74.12C156.316 74.12 156.764 73.9653 157.159 73.656C157.554 73.3467 157.82 72.936 157.959 72.424V71.832C157.746 71.6293 157.447 71.4693 157.063 71.352C156.69 71.224 156.306 71.16 155.911 71.16H154.887C154.45 71.16 154.092 71.272 153.815 71.496C153.548 71.72 153.415 72.0133 153.415 72.376V72.888C153.415 73.2613 153.543 73.56 153.799 73.784C154.055 74.008 154.396 74.12 154.823 74.12H155.815ZM166.69 67.016H167.81V68.104C168.034 67.7413 168.327 67.448 168.69 67.224C169.063 67 169.436 66.888 169.81 66.888H170.962C171.815 66.888 172.503 67.16 173.026 67.704C173.559 68.248 173.826 68.968 173.826 69.864V71.832C173.826 72.824 173.554 73.624 173.01 74.232C172.476 74.8293 171.767 75.128 170.882 75.128H169.73C169.399 75.128 169.052 75.0373 168.69 74.856C168.327 74.664 168.044 74.4187 167.842 74.12V78.184H166.69V67.016ZM170.85 74.104C171.404 74.104 171.847 73.896 172.178 73.48C172.508 73.064 172.674 72.5147 172.674 71.832V69.864C172.674 69.2773 172.514 68.808 172.194 68.456C171.874 68.0933 171.452 67.912 170.93 67.912H169.81C169.362 67.912 168.956 68.088 168.594 68.44C168.231 68.7813 167.98 69.224 167.842 69.768V72.168C167.916 72.7333 168.135 73.1973 168.498 73.56C168.86 73.9227 169.292 74.104 169.794 74.104H170.85ZM183.876 75.128C182.98 75.128 182.26 74.8507 181.716 74.296C181.172 73.7413 180.9 73.0107 180.9 72.104V69.912C180.9 69.0053 181.172 68.2747 181.716 67.72C182.27 67.1653 183.001 66.888 183.908 66.888H185.22C186.126 66.888 186.852 67.1653 187.396 67.72C187.95 68.2747 188.228 69.0053 188.228 69.912V72.104C188.228 73.0107 187.95 73.7413 187.396 74.296C186.841 74.8507 186.105 75.128 185.188 75.128H183.876ZM185.188 74.104C185.764 74.104 186.222 73.9227 186.564 73.56C186.905 73.1867 187.076 72.7013 187.076 72.104V69.912C187.076 69.3147 186.905 68.8347 186.564 68.472C186.222 68.0987 185.774 67.912 185.22 67.912H183.908C183.353 67.912 182.905 68.0987 182.564 68.472C182.222 68.8347 182.052 69.3147 182.052 69.912V72.104C182.052 72.712 182.217 73.1973 182.548 73.56C182.878 73.9227 183.321 74.104 183.876 74.104H185.188ZM197.897 75.128C197.086 75.128 196.435 74.8987 195.945 74.44C195.454 73.9813 195.209 73.3787 195.209 72.632H196.329C196.329 73.08 196.473 73.4427 196.761 73.72C197.049 73.9973 197.427 74.136 197.897 74.136H199.289C199.747 74.136 200.121 74.0453 200.409 73.864C200.697 73.672 200.841 73.4267 200.841 73.128V72.584C200.841 72.3813 200.761 72.2053 200.601 72.056C200.441 71.896 200.233 71.7893 199.977 71.736L197.209 71.256C196.654 71.16 196.206 70.952 195.865 70.632C195.534 70.3013 195.369 69.9173 195.369 69.48V68.952C195.369 68.3333 195.603 67.8373 196.073 67.464C196.542 67.08 197.161 66.888 197.929 66.888H199.305C200.051 66.888 200.654 67.1013 201.113 67.528C201.571 67.944 201.801 68.4987 201.801 69.192H200.681C200.67 68.7973 200.537 68.4827 200.281 68.248C200.035 68.0027 199.71 67.88 199.305 67.88H197.929C197.502 67.88 197.161 67.9813 196.905 68.184C196.649 68.376 196.521 68.632 196.521 68.952V69.416C196.521 69.6187 196.606 69.8 196.777 69.96C196.958 70.12 197.187 70.2213 197.465 70.264L200.217 70.744C200.75 70.84 201.177 71.048 201.497 71.368C201.827 71.688 201.993 72.072 201.993 72.52V73.16C201.993 73.7467 201.742 74.2213 201.241 74.584C200.75 74.9467 200.099 75.128 199.289 75.128H197.897ZM212.259 75C211.417 75 210.809 74.8187 210.435 74.456C210.073 74.0933 209.891 73.496 209.891 72.664V68.04H208.483V67.016H209.891V64.6H211.043V67.016H213.123V68.04H211.043V72.664C211.043 73.1333 211.134 73.4693 211.315 73.672C211.507 73.8747 211.822 73.976 212.259 73.976H213.123V75H212.259ZM222.629 75.128C221.851 75.128 221.227 74.9253 220.757 74.52C220.299 74.1147 220.069 73.5707 220.069 72.888V72.376C220.069 71.704 220.309 71.1653 220.789 70.76C221.269 70.3547 221.904 70.152 222.693 70.152H223.717C224.069 70.152 224.432 70.2053 224.805 70.312C225.179 70.4187 225.499 70.5627 225.765 70.744V69.416C225.765 68.968 225.627 68.6053 225.349 68.328C225.072 68.04 224.704 67.896 224.245 67.896H222.965C222.507 67.896 222.139 68.0027 221.861 68.216C221.584 68.4293 221.445 68.712 221.445 69.064H220.293C220.293 68.4133 220.539 67.8907 221.029 67.496C221.52 67.0907 222.165 66.888 222.965 66.888H224.245C225.035 66.888 225.669 67.1227 226.149 67.592C226.64 68.0507 226.885 68.6587 226.885 69.416V75H225.797V73.88C225.552 74.264 225.227 74.568 224.821 74.792C224.427 75.016 224.016 75.128 223.589 75.128H222.629ZM223.621 74.12C224.123 74.12 224.571 73.9653 224.965 73.656C225.36 73.3467 225.627 72.936 225.765 72.424V71.832C225.552 71.6293 225.253 71.4693 224.869 71.352C224.496 71.224 224.112 71.16 223.717 71.16H222.693C222.256 71.16 221.899 71.272 221.621 71.496C221.355 71.72 221.221 72.0133 221.221 72.376V72.888C221.221 73.2613 221.349 73.56 221.605 73.784C221.861 74.008 222.203 74.12 222.629 74.12H223.621Z" fill="white"/>
</svg>
